<?xml version="1.0" standalone="no"?>
<!DOCTYPE svg PUBLIC "-//W3C//DTD SVG 20010904//EN"
 "http://www.w3.org/TR/2001/REC-SVG-20010904/DTD/svg10.dtd">
<svg version="1.0" xmlns="http://www.w3.org/2000/svg"
 width="750.000000pt" height="273.000000pt" viewBox="0 0 750.000000 273.000000"
 preserveAspectRatio="xMidYMid meet">
<metadata>
Created by potrace 1.16, written by Peter Selinger 2001-2019
</metadata>
<g transform="translate(0.000000,273.000000) scale(0.100000,-0.100000)"
fill="#000000" stroke="none">
<path d="M0 1365 l0 -1365 3750 0 3750 0 0 1365 0 1365 -772 0 c-570 -1 -768
-4 -753 -12 37 -20 67 -53 91 -100 30 -58 33 -151 7 -206 -22 -46 -110 -132
-135 -132 -14 0 -18 -8 -18 -40 0 -38 1 -39 38 -44 171 -25 364 -100 479 -187
52 -39 53 -39 72 -20 17 17 18 21 5 32 -23 19 -16 37 39 95 54 57 93 84 124
84 25 0 163 -140 162 -165 0 -14 -2 -16 -6 -5 -3 8 -35 45 -71 82 -87 89 -98
89 -186 2 -64 -64 -66 -67 -50 -85 16 -18 16 -20 -6 -44 -13 -14 -27 -25 -32
-25 -4 0 -27 14 -51 31 -126 92 -248 145 -397 174 -47 8 -95 18 -107 21 -20 4
-23 11 -23 54 0 38 4 50 15 50 12 0 15 14 17 63 5 166 -5 197 -63 197 -15 0
-31 5 -35 12 -5 8 0 9 17 5 13 -4 31 -7 40 -7 39 0 54 -26 59 -102 l5 -73 23
35 c29 47 30 125 1 174 -29 50 -80 79 -136 78 -126 -3 -203 -118 -152 -227 12
-25 25 -48 30 -51 5 -3 9 26 9 65 0 61 3 72 22 85 12 9 34 16 48 15 22 0 21
-2 -10 -12 -31 -11 -36 -17 -42 -57 -10 -70 2 -200 18 -200 8 0 14 -4 14 -10
0 -24 -100 37 -133 82 -35 48 -49 89 -49 150 0 70 24 124 79 176 l46 42 -2867
0 -2866 0 0 -1365z m1059 1299 c71 -21 124 -75 141 -142 13 -55 7 -119 -16
-163 -17 -33 -70 -79 -92 -79 -9 0 1 -9 23 -19 83 -38 125 -111 125 -213 0
-78 -24 -134 -76 -176 -64 -54 -112 -62 -346 -62 l-208 0 0 435 0 435 198 0
c150 0 211 -4 251 -16z m723 -186 c53 -16 122 -78 144 -130 16 -37 19 -78 22
-290 l4 -248 -61 0 -61 0 0 37 0 37 -32 -32 c-48 -46 -96 -62 -185 -62 -138 0
-212 60 -221 181 -6 84 4 125 44 169 56 61 119 80 269 80 l125 0 0 34 c0 43
-36 96 -80 118 -48 25 -168 23 -240 -2 -30 -11 -58 -19 -62 -20 -5 0 -8 24 -8
54 l0 54 58 15 c70 18 230 21 284 5z m805 1 c38 -14 80 -56 106 -104 21 -38
22 -56 25 -302 l3 -263 -54 0 -55 0 -4 233 c-4 253 -10 284 -63 325 -34 27
-120 30 -165 7 -38 -20 -75 -70 -89 -120 -6 -23 -11 -127 -11 -242 l0 -203
-60 0 -60 0 0 330 0 330 60 0 60 0 0 -39 0 -38 36 34 c20 19 50 40 68 48 37
16 164 19 203 4z m770 -6 l53 -17 0 -53 c0 -29 -3 -53 -7 -53 -5 0 -32 9 -61
20 -70 27 -169 27 -222 0 -75 -38 -112 -114 -112 -230 0 -116 37 -192 112
-230 53 -27 152 -27 222 0 29 11 56 20 61 20 4 0 7 -24 7 -54 l0 -54 -64 -17
c-89 -24 -234 -18 -294 14 -62 32 -118 94 -143 159 -32 82 -32 243 0 324 29
74 94 140 164 167 68 26 207 28 284 4z m645 -16 c101 -59 148 -160 148 -317 0
-156 -47 -258 -148 -317 -38 -22 -61 -28 -133 -31 -130 -6 -201 24 -264 112
-45 64 -60 124 -60 241 1 110 12 156 57 227 54 86 127 119 258 115 83 -2 102
-6 142 -30z m1785 -260 c-3 -7 -43 -18 -93 -26 -147 -21 -300 -83 -414 -166
-33 -25 -63 -45 -67 -45 -11 0 -53 42 -53 53 0 5 8 16 18 23 16 12 12 18 -38
69 -49 50 -96 85 -116 85 -3 0 -39 -32 -80 -72 -98 -94 -98 -109 -9 -198 63
-63 65 -63 85 -45 20 18 21 18 45 -5 14 -13 25 -28 25 -33 0 -6 -15 -28 -33
-51 -139 -172 -215 -453 -187 -692 52 -450 386 -802 825 -870 50 -7 107 -14
128 -14 20 0 37 -5 37 -10 0 -6 -16 -8 -37 -5 -21 2 -63 7 -93 10 -310 34
-597 228 -759 515 -24 41 -40 66 -35 55 4 -11 9 -66 12 -122 7 -171 -38 -277
-146 -341 -43 -25 -55 -27 -152 -27 -119 0 -158 13 -216 73 -124 128 -124 421
1 546 57 58 98 71 215 71 97 0 109 -2 152 -27 25 -16 61 -45 79 -65 18 -22 28
-29 24 -18 -4 11 -17 56 -28 100 -30 112 -30 353 0 470 34 135 99 271 174 366
28 36 28 37 10 58 -16 19 -20 19 -31 6 -22 -27 -43 -16 -112 56 -90 94 -90
101 12 202 99 99 107 99 208 -5 l71 -73 -20 -21 -20 -21 23 -15 c21 -14 26
-13 73 23 110 83 311 162 468 185 34 4 47 11 48 23 0 11 2 12 6 3 3 -7 3 -18
0 -25z m256 -152 c38 -8 103 -29 145 -47 554 -240 705 -948 297 -1386 -151
-162 -326 -252 -537 -275 -478 -53 -905 288 -960 766 -31 277 67 539 275 733
208 194 492 270 780 209z m797 -49 c0 -8 -32 -47 -71 -86 l-71 -72 -20 20
c-20 19 -21 19 -39 1 -19 -19 -19 -20 20 -72 87 -119 171 -330 182 -457 9
-117 2 -285 -16 -355 -19 -77 -81 -242 -100 -265 -7 -8 -25 -37 -41 -65 -40
-70 -195 -223 -282 -280 -144 -92 -306 -150 -457 -162 -95 -8 -80 3 25 17 155
20 295 71 420 152 409 266 559 797 353 1248 -20 44 -99 168 -124 196 -19 20
-19 21 11 49 29 28 30 28 49 10 20 -17 22 -16 86 49 36 36 65 70 65 76 0 5 2
10 5 10 3 0 5 -6 5 -14z m-3712 -311 c62 -19 115 -62 145 -119 19 -35 22 -57
22 -156 0 -130 -14 -171 -79 -228 -55 -48 -118 -62 -278 -62 l-138 0 0 290 0
290 138 0 c96 0 154 -5 190 -15z m581 -136 c58 -32 85 -80 89 -160 l4 -69
-161 0 c-156 0 -161 -1 -161 -20 0 -30 26 -75 56 -99 33 -26 129 -29 194 -6
59 21 60 20 60 -24 0 -40 0 -40 -53 -51 -29 -7 -89 -11 -133 -9 -68 3 -87 8
-123 32 -129 85 -120 328 14 404 55 31 161 32 214 2z m-2199 -409 l0 -70 -60
0 -60 0 0 70 0 70 60 0 60 0 0 -70z m-190 -20 l0 -50 -155 0 -155 0 0 -385 0
-385 -65 0 -65 0 0 385 0 385 -155 0 -155 0 0 50 0 50 375 0 375 0 0 -50z
m816 -163 c88 -46 143 -143 151 -268 l6 -79 -250 0 -250 0 8 -45 c13 -68 45
-122 91 -152 36 -24 54 -28 127 -31 82 -4 122 4 224 43 15 6 17 0 17 -49 l0
-55 -57 -18 c-43 -13 -91 -18 -183 -18 -117 0 -128 2 -176 27 -66 35 -128 105
-151 171 -24 70 -24 222 1 294 28 84 112 167 196 194 43 14 211 5 246 -14z
m743 3 c41 -20 76 -58 86 -92 6 -17 10 -15 36 21 43 58 115 91 201 91 79 0
111 -13 156 -64 54 -62 62 -111 62 -378 l0 -238 -60 0 -60 0 0 237 c0 217 -2
240 -20 278 -24 49 -53 65 -117 65 -56 0 -103 -27 -135 -78 -22 -35 -23 -47
-26 -269 l-3 -233 -59 0 -58 0 -4 243 c-3 207 -6 247 -20 274 -26 46 -55 63
-111 63 -54 0 -79 -10 -120 -48 -47 -44 -57 -102 -57 -329 l0 -203 -60 0 -60
0 0 330 0 330 60 0 60 0 0 -41 0 -41 25 30 c59 70 199 96 284 52z m1169 4
c106 -44 172 -172 172 -334 0 -162 -66 -290 -172 -334 -52 -22 -162 -20 -213
3 -23 10 -53 33 -68 50 l-27 33 0 -166 0 -166 -60 0 -60 0 0 455 0 455 60 0
60 0 0 -41 0 -41 27 33 c15 17 45 40 68 50 51 23 161 25 213 3z m-2538 -334
l0 -330 -60 0 -60 0 0 330 0 330 60 0 60 0 0 -330z"/>
<path d="M740 2450 l0 -133 120 6 c138 7 180 22 204 72 20 42 20 68 0 110 -24
50 -66 65 -204 72 l-120 6 0 -133z"/>
<path d="M740 2065 l0 -158 129 6 c157 7 199 23 225 87 9 22 16 51 16 65 0 14
-7 43 -16 65 -26 64 -68 80 -225 87 l-129 6 0 -158z"/>
<path d="M1665 2130 c-122 -12 -155 -38 -155 -123 0 -43 5 -54 35 -84 34 -34
37 -35 103 -31 49 2 76 9 99 26 43 31 83 114 83 174 l0 48 -47 -1 c-27 -1 -79
-5 -118 -9z"/>
<path d="M3759 2367 c-69 -46 -104 -163 -87 -288 10 -76 42 -136 88 -167 30
-20 44 -23 97 -20 53 3 68 9 94 33 64 61 93 184 70 297 -23 107 -86 168 -176
168 -38 0 -61 -6 -86 -23z"/>
<path d="M4559 857 c-69 -46 -104 -163 -87 -288 10 -76 42 -136 88 -167 30
-20 44 -23 97 -20 53 3 68 9 94 33 64 61 93 184 70 297 -23 107 -86 168 -176
168 -38 0 -61 -6 -86 -23z"/>
<path d="M5858 1978 c0 -7 -2 -17 -3 -23 -2 -5 -3 -16 -4 -22 0 -7 -8 -13 -16
-13 -12 0 -15 -18 -15 -105 0 -83 3 -105 14 -105 21 0 22 -9 20 -208 l-1 -184
-41 -18 c-112 -50 -81 -210 40 -210 32 0 50 -8 87 -38 25 -21 114 -94 196
-162 83 -67 178 -150 212 -183 72 -70 68 -70 138 27 106 151 150 288 149 471
-1 172 -40 296 -136 438 -71 105 -187 205 -305 265 -98 50 -331 99 -335 70z"/>
<path d="M2890 1410 l0 -232 88 7 c100 8 160 30 189 71 43 61 55 162 28 250
-26 87 -77 118 -217 129 l-88 7 0 -232z"/>
<path d="M3538 1484 c-28 -15 -58 -61 -58 -89 0 -13 18 -15 120 -15 l120 0 0
25 c0 13 -14 40 -31 60 -27 31 -37 35 -78 35 -25 -1 -58 -7 -73 -16z"/>
<path d="M1897 859 c-44 -23 -83 -79 -92 -131 l-7 -38 186 0 186 0 0 28 c0 42
-41 114 -79 139 -45 30 -139 31 -194 2z"/>
<path d="M3821 844 c-55 -49 -76 -109 -76 -214 0 -105 21 -165 76 -214 35 -32
45 -36 95 -36 77 0 115 25 151 98 25 50 28 68 28 152 0 84 -3 102 -28 152 -36
73 -74 98 -151 98 -50 0 -60 -4 -95 -36z"/>
</g>
</svg>
